<svg xmlns="http://www.w3.org/2000/svg" width="40.007" height="40.007" viewBox="0 0 40.007 40.007"><path d="M37.324 10.004c-5.522-9.566-17.755-12.844-27.32-7.32-9.566 5.522-12.844 17.754-7.32 27.32 5.522 9.565 17.754 12.843 27.32 7.32 9.565-5.523 12.844-17.755 7.32-27.32zm-9.32 23.855c-7.652 4.419-17.438 1.797-21.856-5.856-4.419-7.652-1.796-17.438 5.856-21.855 7.652-4.419 17.438-1.797 21.856 5.856 4.418 7.652 1.796 17.437-5.856 21.855zm-.8-14.668l-10.473-6.108c-.954-.557-1.724-.112-1.719.992l.054 12.124c.005 1.104.784 1.553 1.741 1l10.393-6c.956-.552.958-1.451.004-2.008z"/></svg>